<?xml version="1.0" standalone="no"?>
<!DOCTYPE svg PUBLIC "-//W3C//DTD SVG 20010904//EN"
 "http://www.w3.org/TR/2001/REC-SVG-20010904/DTD/svg10.dtd">
<svg version="1.0" xmlns="http://www.w3.org/2000/svg"
 width="1024.000000pt" height="1024.000000pt" viewBox="0 0 1024.000000 1024.000000"
 preserveAspectRatio="xMidYMid meet">
<metadata>
Created by potrace 1.11, written by Peter Selinger 2001-2013
</metadata>
<g transform="translate(0.000000,1024.000000) scale(0.100000,-0.100000)"
fill="#000000" stroke="none">
<path d="M4622 8420 c-177 -19 -218 -25 -342 -52 -300 -63 -573 -173 -799
-322 -53 -35 -106 -72 -118 -82 -12 -11 -35 -29 -52 -42 -85 -66 -203 -200
-303 -345 -9 -12 -57 -30 -143 -52 -92 -25 -135 -41 -147 -56 -17 -20 -18 -59
-18 -504 0 -468 1 -483 20 -508 11 -14 35 -29 53 -32 17 -4 106 -25 197 -47
l164 -39 61 -63 c114 -119 272 -237 423 -317 l63 -33 -7 -116 c-3 -63 -6 -121
-7 -127 0 -16 -2 -16 -40 2 -41 18 -290 125 -293 125 -2 0 -4 -9 -6 -19 -3
-17 -17 -14 -168 40 -91 33 -172 62 -180 66 -18 8 -19 8 -52 17 -14 4 -28 16
-31 25 -3 11 -27 26 -63 39 -33 11 -175 66 -318 121 -142 56 -267 101 -278
101 -11 0 -59 24 -108 54 -229 142 -382 198 -409 148 -11 -21 6 -75 39 -123
l24 -34 -42 38 c-50 44 -79 57 -128 57 -132 0 -228 -150 -220 -346 4 -96 64
-167 166 -195 25 -7 78 -25 118 -41 96 -37 243 -74 304 -77 10 -1 15 -7 13
-13 -3 -8 144 -102 387 -248 517 -310 490 -295 488 -279 -2 8 -2 28 -1 46 l1
31 83 -32 c45 -18 91 -36 102 -41 11 -4 22 -9 25 -9 7 -2 218 -85 255 -101 17
-7 42 -17 57 -23 15 -6 34 -25 43 -41 21 -42 52 -47 122 -22 33 12 62 21 65
21 3 0 4 -26 2 -57 -1 -32 -5 -107 -9 -168 -3 -60 -8 -137 -10 -170 -2 -33 -7
-107 -10 -165 -9 -171 -15 -291 -20 -355 -2 -33 -7 -118 -11 -190 -3 -71 -8
-133 -11 -137 -2 -4 3 -22 12 -40 14 -29 45 -47 233 -141 119 -59 262 -125
317 -147 55 -21 100 -43 100 -47 0 -5 -12 -47 -28 -93 -15 -47 -48 -151 -75
-231 l-47 -146 -110 42 c-128 48 -273 89 -510 145 l-170 39 -38 -25 c-99 -65
-249 -347 -354 -664 -14 -41 -26 -79 -27 -85 -2 -5 -6 -17 -9 -25 -43 -106
-129 -482 -131 -570 l-1 -75 45 -22 c47 -23 202 -58 305 -68 33 -3 71 -8 85
-10 14 -3 61 -7 105 -11 44 -3 96 -7 115 -9 214 -24 1053 -24 1122 -1 7 3 29
7 49 9 66 8 107 29 121 61 25 59 11 335 -27 536 -6 32 -34 195 -41 235 -2 17
-17 90 -32 163 l-27 134 -125 54 c-69 29 -129 55 -134 57 -5 2 -4 12 3 22 6
11 43 117 81 235 39 118 72 220 74 226 3 7 27 5 78 -8 167 -42 292 -57 448
-53 168 4 369 36 512 81 13 4 26 -25 73 -168 108 -329 105 -319 87 -325 -10
-3 -41 -17 -70 -29 -29 -13 -56 -24 -60 -24 -4 0 -25 -10 -47 -21 -22 -12 -40
-21 -40 -20 0 1 -16 -5 -36 -13 -36 -15 -40 -24 -65 -161 -1 -5 -11 -59 -22
-120 -33 -170 -31 -164 -47 -265 -2 -14 -9 -55 -15 -91 -28 -182 -34 -409 -11
-452 16 -30 47 -44 116 -53 28 -3 53 -8 56 -10 15 -8 292 -18 514 -18 214 0
498 9 610 19 22 2 76 7 120 10 82 7 92 8 185 20 116 14 255 46 299 67 l46 23
-1 65 c-1 53 -18 160 -40 250 -42 174 -108 392 -160 530 -20 52 -42 112 -50
132 -30 82 -117 251 -165 322 -28 42 -70 91 -95 110 l-44 34 -112 -25 c-180
-38 -409 -100 -529 -143 -77 -27 -111 -35 -114 -27 -2 7 -36 110 -75 230 -40
120 -70 220 -68 222 1 2 64 26 139 54 161 60 335 133 437 185 39 20 72 34 72
31 0 -14 61 31 67 50 6 19 5 98 -2 134 -1 9 -6 48 -10 86 -4 39 -8 81 -10 95
-2 14 -7 61 -11 105 -3 44 -8 88 -9 97 -2 9 -6 49 -10 90 -3 40 -8 84 -10 98
-3 14 -7 54 -10 90 -3 36 -8 83 -10 105 -3 22 -10 87 -15 145 -6 58 -13 116
-15 130 -2 14 -7 59 -10 101 l-7 77 41 -11 c34 -9 43 -8 61 8 11 10 20 24 20
30 0 7 17 19 38 28 38 15 54 20 332 106 91 29 176 56 188 62 23 9 24 8 19 -30
-2 -22 -2 -43 1 -45 3 -3 73 30 156 73 148 77 411 213 634 327 61 31 112 62
112 68 0 7 40 17 98 24 93 11 340 74 412 105 98 41 134 148 104 309 -24 125
-85 196 -184 212 -39 6 -134 -33 -144 -59 -3 -8 -10 -15 -15 -15 -6 0 3 19 20
43 28 41 41 98 25 114 -13 13 -85 5 -150 -17 -36 -12 -129 -53 -208 -93 -79
-39 -154 -72 -168 -73 -30 -2 -46 -6 -260 -73 -91 -29 -217 -68 -280 -88 -63
-19 -122 -44 -130 -53 -13 -15 -274 -100 -357 -116 -12 -2 -34 -9 -48 -14 -35
-13 -35 -13 -35 9 0 23 6 25 -207 -51 -145 -52 -153 -54 -154 -34 0 12 -2 30
-4 40 -2 11 -7 54 -10 96 l-6 76 73 49 c127 84 319 254 351 310 13 24 34 31
207 75 106 27 172 49 185 61 19 19 20 31 17 367 -5 586 -7 632 -29 653 -10 10
-54 28 -98 40 -44 11 -84 22 -90 23 -5 2 -27 6 -48 11 -30 6 -45 17 -70 54
-46 67 -71 96 -172 196 -314 313 -767 509 -1345 581 -76 9 -481 12 -558 4z"/>
</g>
</svg>
